<svg width="21" height="22" viewBox="0 0 21 22" fill="none" xmlns="http://www.w3.org/2000/svg">
<path d="M10.5 21.5C8.91247 21.5045 7.345 21.1453 5.91782 20.45C5.39552 20.1959 4.89507 19.8991 4.42158 19.5627L4.27773 19.4577C2.97557 18.4965 1.91094 17.2498 1.16555 15.8132C0.394574 14.3262 -0.00529422 12.6749 5.29298e-05 11C5.29298e-05 5.20084 4.70088 0.5 10.5 0.5C16.2991 0.5 20.9999 5.20084 20.9999 11C21.0052 12.6741 20.6057 14.3247 19.8355 15.8111C19.0912 17.2469 18.028 18.4932 16.7275 19.4546C16.2372 19.8137 15.7164 20.1297 15.1714 20.3996L15.0874 20.4416C13.6594 21.1406 12.09 21.5026 10.5 21.5ZM10.5 16.25C9.7283 16.2485 8.97117 16.4601 8.31213 16.8616C7.65309 17.2631 7.11776 17.8389 6.76517 18.5253C7.9262 19.1004 9.20435 19.3996 10.5 19.3996C11.7957 19.3996 13.0738 19.1004 14.2348 18.5253V18.5201C13.8818 17.8344 13.3462 17.2595 12.6872 16.8589C12.0281 16.4583 11.2712 16.2476 10.5 16.25ZM10.5 14.15C11.6174 14.1512 12.7144 14.4489 13.6791 15.0127C14.6439 15.5764 15.4418 16.3859 15.9915 17.3588L16.0062 17.3451L16.0209 17.3325L16.003 17.3483L15.9925 17.3567C17.2892 16.2365 18.2122 14.7465 18.6378 13.0866C19.0634 11.4268 18.9712 9.67652 18.3735 8.0706C17.7759 6.46467 16.7014 5.07993 15.2943 4.10215C13.8871 3.12437 12.2146 2.60033 10.5011 2.60033C8.78753 2.60033 7.11499 3.12437 5.70783 4.10215C4.30067 5.07993 3.22619 6.46467 2.62856 8.0706C2.03092 9.67652 1.93872 11.4268 2.36431 13.0866C2.7899 14.7465 3.71294 16.2365 5.00958 17.3567C5.5596 16.3843 6.35766 15.5752 7.32236 15.0119C8.28707 14.4486 9.38391 14.1511 10.5011 14.15H10.5ZM10.5 13.1C9.3861 13.1 8.31782 12.6575 7.53017 11.8698C6.74252 11.0822 6.30002 10.0139 6.30002 8.89998C6.30002 7.78608 6.74252 6.71779 7.53017 5.93014C8.31782 5.14249 9.3861 4.69999 10.5 4.69999C11.6139 4.69999 12.6822 5.14249 13.4698 5.93014C14.2575 6.71779 14.7 7.78608 14.7 8.89998C14.7 10.0139 14.2575 11.0822 13.4698 11.8698C12.6822 12.6575 11.6139 13.1 10.5 13.1ZM10.5 6.79999C9.94305 6.79999 9.40891 7.02124 9.01509 7.41506C8.62126 7.80889 8.40001 8.34303 8.40001 8.89998C8.40001 9.45694 8.62126 9.99108 9.01509 10.3849C9.40891 10.7787 9.94305 11 10.5 11C11.057 11 11.5911 10.7787 11.9849 10.3849C12.3787 9.99108 12.6 9.45694 12.6 8.89998C12.6 8.34303 12.3787 7.80889 11.9849 7.41506C11.5911 7.02124 11.057 6.79999 10.5 6.79999Z" fill="#333333"/>
</svg>
